<?xml version="1.0" encoding="UTF-8" standalone="no"?>
<svg
   xmlns:dc="http://purl.org/dc/elements/1.1/"
   xmlns:cc="http://creativecommons.org/ns#"
   xmlns:rdf="http://www.w3.org/1999/02/22-rdf-syntax-ns#"
   xmlns:svg="http://www.w3.org/2000/svg"
   xmlns="http://www.w3.org/2000/svg"
   xmlns:sodipodi="http://sodipodi.sourceforge.net/DTD/sodipodi-0.dtd"
   xmlns:inkscape="http://www.inkscape.org/namespaces/inkscape"
   version="1.1"
   width="5.3455987"
   height="5.5152006"
   viewBox="0 0 5.3455987 5.5152006"
   id="svg827"
   sodipodi:docname="lock_screen.svg"
   inkscape:version="0.92.3 (2405546, 2018-03-11)"
   inkscape:export-filename="C:\Users\Paul\Téléchargements\lock_small.png"
   inkscape:export-xdpi="295.90945"
   inkscape:export-ydpi="295.90945">
  <metadata
     id="metadata833">
    <rdf:RDF>
      <cc:Work
         rdf:about="">
        <dc:format>image/svg+xml</dc:format>
        <dc:type
           rdf:resource="http://purl.org/dc/dcmitype/StillImage" />
        <dc:title></dc:title>
      </cc:Work>
    </rdf:RDF>
  </metadata>
  <defs
     id="defs831" />
  <sodipodi:namedview
     pagecolor="#ffffff"
     bordercolor="#666666"
     borderopacity="1"
     objecttolerance="10"
     gridtolerance="10"
     guidetolerance="10"
     inkscape:pageopacity="0"
     inkscape:pageshadow="2"
     inkscape:window-width="1920"
     inkscape:window-height="1017"
     id="namedview829"
     showgrid="false"
     fit-margin-top="0"
     fit-margin-left="0"
     fit-margin-right="0"
     fit-margin-bottom="0"
     inkscape:zoom="24.98444"
     inkscape:cx="14.013989"
     inkscape:cy="0.96296298"
     inkscape:window-x="-8"
     inkscape:window-y="-8"
     inkscape:window-maximized="1"
     inkscape:current-layer="svg827" />
  <path
     d="m 2.6728686,0 c -0.121906,0 -0.240921,0.013421 -0.356588,0.036144 -0.08051,0.015487 -0.155787,0.042004 -0.232103,0.067455 -0.03183,0.010784 -0.06532,0.017293 -0.09638,0.029713 -0.08377,0.03313 -0.1622,0.075212 -0.239332,0.119671 -0.02118,0.012213 -0.0436,0.022269 -0.06425,0.035339 -0.0709,0.044706 -0.135309,0.096519 -0.199174,0.1501845 -0.02457,0.020619 -0.05041,0.039184 -0.07389,0.061037 -0.0549,0.051241 -0.103509,0.1078351 -0.151792,0.1654438 -0.02731,0.032286 -0.056,0.063025 -0.08111,0.097182 -0.03581,0.049227 -0.0663,0.1014041 -0.09718,0.1542006 -0.03229,0.054216 -0.06313,0.1085887 -0.08995,0.1662467 -0.01667,0.036755 -0.03067,0.074419 -0.04498,0.1124345 -0.03195,0.082214 -0.05839,0.1662285 -0.07871,0.2537881 -0.0042,0.019177 -0.0077,0.038418 -0.0113,0.057815 -0.01143,0.057114 -0.02761,0.1121226 -0.03373,0.1710656 7.9e-5,0.063454 7.29e-4,0.1062631 7.91e-4,0.1678539 -4e-6,0.00169 -7.91e-4,0.00312 -7.91e-4,0.00481 V 2.0559831 C 0.3659681,2.0559831 0,2.4219501 0,2.8783817 v 1.8144208 c 0,0.456431 0.38334858,0.6976426 0.8223996,0.822398 h 1.759647 0.180702 1.760451 c 0.456431,0 0.822399,-0.365967 0.822399,-0.822398 V 2.8783817 c 0,-0.4564316 -0.365968,-0.8223986 -0.822399,-0.8223986 V 1.8503818 c 0,-0.00195 -7.91e-4,-0.00377 -7.91e-4,-0.00559 7.4e-5,-0.06131 7.23e-4,-0.1039115 7.91e-4,-0.167051 -0.0062,-0.060349 -0.02357,-0.1166568 -0.03534,-0.1750801 -0.0032,-0.017319 -0.0068,-0.034273 -0.01039,-0.051397 -0.01986,-0.086073 -0.04519,-0.168844 -0.0763,-0.249771 -0.01562,-0.041965 -0.0313,-0.083254 -0.04979,-0.1236857 -0.02565,-0.054736 -0.05455,-0.1065879 -0.08514,-0.158215 -0.03162,-0.05432 -0.06357,-0.1076533 -0.10039,-0.1582164 -0.0238,-0.032312 -0.05054,-0.061713 -0.0763,-0.092361 -0.04995,-0.059972 -0.100299,-0.1187486 -0.157413,-0.1718685 -0.02128,-0.019748 -0.04529,-0.035871 -0.06745,-0.054606 -0.0654,-0.055321 -0.131965,-0.1083289 -0.204798,-0.1542004 -0.0199,-0.012602 -0.04146,-0.021892 -0.06184,-0.033728 -0.07762,-0.044836 -0.155782,-0.087905 -0.240135,-0.1212691 -0.03316,-0.013265 -0.06875,-0.020762 -0.102794,-0.03213 -0.07389,-0.02436 -0.147075,-0.05002 -0.224876,-0.065052 C 2.9143406,0.0133466 2.7950246,1.66e-5 2.6728536,1.66e-5 Z m 0,0.8223997 c 0.567748,0 1.027999,0.4602506 1.027999,1.0280003 V 2.0559991 H 1.6448686 V 1.8504 c 0,-0.5677497 0.460251,-1.0280003 1.028,-1.0280003 z"
     id="path825"
     inkscape:connector-curvature="0"
     style="stroke-width:0.41119984"
     sodipodi:nodetypes="cccccccccccccccccscsssccssscsccccccccccccccccccssccss" />
</svg>
